/* XPM */
static char *result[] = {
/* columns rows colors chars-per-pixel */
"64 64 3 1 ",
"  c black",
". c #D9C613",
"X c None",
/* pixels */
"XXXXXXXXXXXXXXXX    XXXXXXXXXXXXXXXXXXXXXXXX    XXXXXXXXXXXXXXXX",
"XXXXXXXXXXXXXXXX    XXXXXXXXXXXXXXXXXXXXXXXX    XXXXXXXXXXXXXXXX",
"XXXXXXXXXXXXXXXX    XXXXXXXXXXXXXXXXXXXXXXXX    XXXXXXXXXXXXXXXX",
"XXXXXXXXXXXXXXXX    XXXXXXXXXXXXXXXXXXXXXXXX    XXXXXXXXXXXXXXXX",
"XXXXXXXXXXXX    ....    XXXXXXXXXXXXXXXX    ....    XXXXXXXXXXXX",
"XXXXXXXXXXXX    ....    XXXXXXXXXXXXXXXX    ....    XXXXXXXXXXXX",
"XXXXXXXXXXXX    ....    XXXXXXXXXXXXXXXX    ....    XXXXXXXXXXXX",
"XXXXXXXXXXXX    ....    XXXXXXXXXXXXXXXX    ....    XXXXXXXXXXXX",
"XXXXXXXX    ........    XXXXXXXXXXXXXXXX    ........    XXXXXXXX",
"XXXXXXXX    ........    XXXXXXXXXXXXXXXX    ........    XXXXXXXX",
"XXXXXXXX    ........    XXXXXXXXXXXXXXXX    ........    XXXXXXXX",
"XXXXXXXX    ........    XXXXXXXXXXXXXXXX    ........    XXXXXXXX",
"XXXX    ................    XXXXXXXX    ................    XXXX",
"XXXX    ................    XXXXXXXX    ................    XXXX",
"XXXX    ................    XXXXXXXX    ................    XXXX",
"XXXX    ................    XXXXXXXX    ................    XXXX",
"XXXX    ................    XXXXXXXX    ................    XXXX",
"XXXX    ................    XXXXXXXX    ................    XXXX",
"XXXX    ................    XXXXXXXX    ................    XXXX",
"XXXX    ................    XXXXXXXX    ................    XXXX",
"XXXX    ................    XXXXXXXX    ................    XXXX",
"XXXX    ................    XXXXXXXX    ................    XXXX",
"XXXX    ................    XXXXXXXX    ................    XXXX",
"XXXX    ................    XXXXXXXX    ................    XXXX",
"    ........................        ........................    ",
"    ........................        ........................    ",
"    ........................        ........................    ",
"    ........................        ........................    ",
"    ........    ............    ............................    ",
"    ........    ............    ............................    ",
"    ........    ............    ............................    ",
"    ........    ............    ............................    ",
"    ........................................................    ",
"    ........................................................    ",
"    ........................................................    ",
"    ........................................................    ",
"    ........................................................    ",
"    ........................................................    ",
"    ........................................................    ",
"    ........................................................    ",
"XXXX    ................................................    XXXX",
"XXXX    ................................................    XXXX",
"XXXX    ................................................    XXXX",
"XXXX    ................................................    XXXX",
"XXXX    ................................................    XXXX",
"XXXX    ................................................    XXXX",
"XXXX    ................................................    XXXX",
"XXXX    ................................................    XXXX",
"XXXXXXXX    ........................................    XXXXXXXX",
"XXXXXXXX    ........................................    XXXXXXXX",
"XXXXXXXX    ........................................    XXXXXXXX",
"XXXXXXXX    ........................................    XXXXXXXX",
"XXXXXXXXXXXX    ................................    XXXXXXXXXXXX",
"XXXXXXXXXXXX    ................................    XXXXXXXXXXXX",
"XXXXXXXXXXXX    ................................    XXXXXXXXXXXX",
"XXXXXXXXXXXX    ................................    XXXXXXXXXXXX",
"XXXXXXXXXXXXXXXX        ................        XXXXXXXXXXXXXXXX",
"XXXXXXXXXXXXXXXX        ................        XXXXXXXXXXXXXXXX",
"XXXXXXXXXXXXXXXX        ................        XXXXXXXXXXXXXXXX",
"XXXXXXXXXXXXXXXX        ................        XXXXXXXXXXXXXXXX",
"XXXXXXXXXXXXXXXXXXXXXXXX                XXXXXXXXXXXXXXXXXXXXXXXX",
"XXXXXXXXXXXXXXXXXXXXXXXX                XXXXXXXXXXXXXXXXXXXXXXXX",
"XXXXXXXXXXXXXXXXXXXXXXXX                XXXXXXXXXXXXXXXXXXXXXXXX",
"XXXXXXXXXXXXXXXXXXXXXXXX                XXXXXXXXXXXXXXXXXXXXXXXX"
};
