/* XPM */
static char *result[] = {
/* columns rows colors chars-per-pixel */
"64 64 3 1 ",
"  c black",
". c #D9C613",
"X c None",
/* pixels */
"XXXXXXXXXXXXXXXXXXXXXXXX                XXXXXXXXXXXXXXXXXXXXXXXX",
"XXXXXXXXXXXXXXXXXXXXXXXX                XXXXXXXXXXXXXXXXXXXXXXXX",
"XXXXXXXXXXXXXXXXXXXXXXXX                XXXXXXXXXXXXXXXXXXXXXXXX",
"XXXXXXXXXXXXXXXXXXXXXXXX                XXXXXXXXXXXXXXXXXXXXXXXX",
"XXXXXXXXXXXXXXXX        ................        XXXXXXXXXXXXXXXX",
"XXXXXXXXXXXXXXXX        ................        XXXXXXXXXXXXXXXX",
"XXXXXXXXXXXXXXXX        ................        XXXXXXXXXXXXXXXX",
"XXXXXXXXXXXXXXXX        ................        XXXXXXXXXXXXXXXX",
"XXXXXXXXXXXX    ................................    XXXXXXXXXXXX",
"XXXXXXXXXXXX    ................................    XXXXXXXXXXXX",
"XXXXXXXXXXXX    ................................    XXXXXXXXXXXX",
"XXXXXXXXXXXX    ................................    XXXXXXXXXXXX",
"XXXXXXXX    ........................................    XXXXXXXX",
"XXXXXXXX    ........................................    XXXXXXXX",
"XXXXXXXX    ........................................    XXXXXXXX",
"XXXXXXXX    ........................................    XXXXXXXX",
"XXXX    ................................................    XXXX",
"XXXX    ................................................    XXXX",
"XXXX    ................................................    XXXX",
"XXXX    ................................................    XXXX",
"XXXX    ................................................    XXXX",
"XXXX    ................................................    XXXX",
"XXXX    ................................................    XXXX",
"XXXX    ................................................    XXXX",
"    ........................................................    ",
"    ........................................................    ",
"    ........................................................    ",
"    ........................................................    ",
"    ........................................................    ",
"    ........................................................    ",
"    ........................................................    ",
"    ........................................................    ",
"    ........    ............    ............................    ",
"    ........    ............    ............................    ",
"    ........    ............    ............................    ",
"    ........    ............    ............................    ",
"    ........................        ........................    ",
"    ........................        ........................    ",
"    ........................        ........................    ",
"    ........................        ........................    ",
"XXXX    ................    XXXXXXXX    ................    XXXX",
"XXXX    ................    XXXXXXXX    ................    XXXX",
"XXXX    ................    XXXXXXXX    ................    XXXX",
"XXXX    ................    XXXXXXXX    ................    XXXX",
"XXXX    ................    XXXXXXXX    ................    XXXX",
"XXXX    ................    XXXXXXXX    ................    XXXX",
"XXXX    ................    XXXXXXXX    ................    XXXX",
"XXXX    ................    XXXXXXXX    ................    XXXX",
"XXXX    ................    XXXXXXXX    ................    XXXX",
"XXXX    ................    XXXXXXXX    ................    XXXX",
"XXXX    ................    XXXXXXXX    ................    XXXX",
"XXXX    ................    XXXXXXXX    ................    XXXX",
"XXXXXXXX    ........    XXXXXXXXXXXXXXXX    ........    XXXXXXXX",
"XXXXXXXX    ........    XXXXXXXXXXXXXXXX    ........    XXXXXXXX",
"XXXXXXXX    ........    XXXXXXXXXXXXXXXX    ........    XXXXXXXX",
"XXXXXXXX    ........    XXXXXXXXXXXXXXXX    ........    XXXXXXXX",
"XXXXXXXXXXXX    ....    XXXXXXXXXXXXXXXX    ....    XXXXXXXXXXXX",
"XXXXXXXXXXXX    ....    XXXXXXXXXXXXXXXX    ....    XXXXXXXXXXXX",
"XXXXXXXXXXXX    ....    XXXXXXXXXXXXXXXX    ....    XXXXXXXXXXXX",
"XXXXXXXXXXXX    ....    XXXXXXXXXXXXXXXX    ....    XXXXXXXXXXXX",
"XXXXXXXXXXXXXXXX    XXXXXXXXXXXXXXXXXXXXXXXX    XXXXXXXXXXXXXXXX",
"XXXXXXXXXXXXXXXX    XXXXXXXXXXXXXXXXXXXXXXXX    XXXXXXXXXXXXXXXX",
"XXXXXXXXXXXXXXXX    XXXXXXXXXXXXXXXXXXXXXXXX    XXXXXXXXXXXXXXXX",
"XXXXXXXXXXXXXXXX    XXXXXXXXXXXXXXXXXXXXXXXX    XXXXXXXXXXXXXXXX"
};
