/* XPM */
static char *result[] = {
/* columns rows colors chars-per-pixel */
"64 64 3 1 ",
"  c black",
". c #D9C613",
"X c None",
/* pixels */
"XXXXXXXXXXXXXXXXXXXXXXXX                XXXXXXXXXXXXXXXXXXXXXXXX",
"XXXXXXXXXXXXXXXXXXXXXXXX                XXXXXXXXXXXXXXXXXXXXXXXX",
"XXXXXXXXXXXXXXXXXXXXXXXX                XXXXXXXXXXXXXXXXXXXXXXXX",
"XXXXXXXXXXXXXXXXXXXXXXXX                XXXXXXXXXXXXXXXXXXXXXXXX",
"XXXXXXXXXXXXXXXX        ................            XXXXXXXXXXXX",
"XXXXXXXXXXXXXXXX        ................            XXXXXXXXXXXX",
"XXXXXXXXXXXXXXXX        ................            XXXXXXXXXXXX",
"XXXXXXXXXXXXXXXX        ................            XXXXXXXXXXXX",
"XXXXXXXXXXXX    ....................................    XXXXXXXX",
"XXXXXXXXXXXX    ....................................    XXXXXXXX",
"XXXXXXXXXXXX    ....................................    XXXXXXXX",
"XXXXXXXXXXXX    ....................................    XXXXXXXX",
"XXXXXXXX    ....................    ....................    XXXX",
"XXXXXXXX    ....................    ....................    XXXX",
"XXXXXXXX    ....................    ....................    XXXX",
"XXXXXXXX    ....................    ....................    XXXX",
"XXXX    ....................................................    ",
"XXXX    ....................................................    ",
"XXXX    ....................................................    ",
"XXXX    ....................................................    ",
"XXXX    ............................................        XXXX",
"XXXX    ............................................        XXXX",
"XXXX    ............................................        XXXX",
"XXXX    ............................................        XXXX",
"    ....................................            XXXXXXXXXXXX",
"    ....................................            XXXXXXXXXXXX",
"    ....................................            XXXXXXXXXXXX",
"    ....................................            XXXXXXXXXXXX",
"    ............................        XXXXXXXXXXXXXXXXXXXXXXXX",
"    ............................        XXXXXXXXXXXXXXXXXXXXXXXX",
"    ............................        XXXXXXXXXXXXXXXXXXXXXXXX",
"    ............................        XXXXXXXXXXXXXXXXXXXXXXXX",
"    ................................    XXXXXXXXXXXXXXXXXXXXXXXX",
"    ................................    XXXXXXXXXXXXXXXXXXXXXXXX",
"    ................................    XXXXXXXXXXXXXXXXXXXXXXXX",
"    ................................    XXXXXXXXXXXXXXXXXXXXXXXX",
"    ....................................            XXXXXXXXXXXX",
"    ....................................            XXXXXXXXXXXX",
"    ....................................            XXXXXXXXXXXX",
"    ....................................            XXXXXXXXXXXX",
"XXXX    ............................................        XXXX",
"XXXX    ............................................        XXXX",
"XXXX    ............................................        XXXX",
"XXXX    ............................................        XXXX",
"XXXX    ....................................................    ",
"XXXX    ....................................................    ",
"XXXX    ....................................................    ",
"XXXX    ....................................................    ",
"XXXXXXXX    ............................................    XXXX",
"XXXXXXXX    ............................................    XXXX",
"XXXXXXXX    ............................................    XXXX",
"XXXXXXXX    ............................................    XXXX",
"XXXXXXXXXXXX    ....................................    XXXXXXXX",
"XXXXXXXXXXXX    ....................................    XXXXXXXX",
"XXXXXXXXXXXX    ....................................    XXXXXXXX",
"XXXXXXXXXXXX    ....................................    XXXXXXXX",
"XXXXXXXXXXXXXXXX        ................            XXXXXXXXXXXX",
"XXXXXXXXXXXXXXXX        ................            XXXXXXXXXXXX",
"XXXXXXXXXXXXXXXX        ................            XXXXXXXXXXXX",
"XXXXXXXXXXXXXXXX        ................            XXXXXXXXXXXX",
"XXXXXXXXXXXXXXXXXXXXXXXX                XXXXXXXXXXXXXXXXXXXXXXXX",
"XXXXXXXXXXXXXXXXXXXXXXXX                XXXXXXXXXXXXXXXXXXXXXXXX",
"XXXXXXXXXXXXXXXXXXXXXXXX                XXXXXXXXXXXXXXXXXXXXXXXX",
"XXXXXXXXXXXXXXXXXXXXXXXX                XXXXXXXXXXXXXXXXXXXXXXXX"
};
